<svg width="32" height="32" viewBox="0 0 32 32" fill="none" xmlns="http://www.w3.org/2000/svg">
<mask id="mask0_23_1588" style="mask-type:luminance" maskUnits="userSpaceOnUse" x="0" y="3" width="19" height="20">
<path d="M18.7093 3.53H0V22.2393H18.7093V3.53Z" fill="white"/>
</mask>
<g mask="url(#mask0_23_1588)">
<path d="M8.39515 3.9883C8.88908 3.37777 9.82187 3.37777 10.3158 3.9883L11.1871 5.06684C11.4947 5.44741 11.9968 5.60935 12.468 5.48304L13.8073 5.12352C14.5668 4.91947 15.3198 5.46684 15.3603 6.25227L15.4316 7.63688C15.4575 8.12433 15.7668 8.55186 16.2235 8.72676L17.519 9.22231C18.2526 9.50409 18.5409 10.3899 18.1117 11.049L17.3555 12.2118C17.0899 12.6215 17.0899 13.1494 17.3555 13.5591L18.1117 14.7219C18.5409 15.381 18.2526 16.2668 17.519 16.5486L16.2235 17.0442C15.7668 17.2191 15.4575 17.645 15.4316 18.134L15.3603 19.5187C15.3198 20.3041 14.5652 20.8515 13.8073 20.6474L12.468 20.2879C11.9968 20.1616 11.4931 20.3235 11.1871 20.7041L10.3158 21.7826C9.82187 22.3932 8.88908 22.3932 8.39515 21.7826L7.52389 20.7041C7.2162 20.3235 6.71418 20.1616 6.24292 20.2879L4.90365 20.6474C4.14414 20.8515 3.3911 20.3041 3.35061 19.5187L3.27936 18.134C3.25345 17.6466 2.94414 17.2191 2.48746 17.0442L1.19191 16.5486C0.458307 16.2668 0.170048 15.381 0.599198 14.7219L1.35547 13.5591C1.62106 13.1494 1.62106 12.6215 1.35547 12.2118L0.599198 11.049C0.170048 10.3899 0.458307 9.50409 1.19191 9.22231L2.48746 8.72676C2.94414 8.55186 3.25345 8.12595 3.27936 7.63688L3.35061 6.25227C3.3911 5.46684 4.14576 4.91947 4.90365 5.12352L6.24292 5.48304C6.71418 5.60935 7.21782 5.44741 7.52389 5.06684L8.39515 3.9883Z" fill="#FBC02D"/>
<path d="M9.33767 19.5688C13.0316 19.5688 16.0259 16.5745 16.0259 12.8806C16.0259 9.18666 13.0316 6.19233 9.33767 6.19233C5.64375 6.19233 2.64941 9.18666 2.64941 12.8806C2.64941 16.5745 5.64375 19.5688 9.33767 19.5688Z" fill="#FFEE58"/>
<path opacity="0.4" d="M9.33767 19.5688C13.0316 19.5688 16.0259 16.5745 16.0259 12.8806C16.0259 9.18666 13.0316 6.19233 9.33767 6.19233C5.64375 6.19233 2.64941 9.18666 2.64941 12.8806C2.64941 16.5745 5.64375 19.5688 9.33767 19.5688Z" fill="url(#paint0_linear_23_1588)"/>
<path d="M10.3191 11.0522C10.3191 12.9697 8.76447 14.5243 6.84706 14.5243C4.92966 14.5243 3.375 12.9697 3.375 11.0522C3.375 9.13484 4.92966 7.58018 6.84706 7.58018C8.76447 7.58018 10.3191 9.13484 10.3191 11.0522Z" fill="url(#paint1_radial_23_1588)"/>
</g>
<path d="M7.72632 28.4677C11.9935 28.4677 15.4526 25.0085 15.4526 20.7413C15.4526 16.4741 11.9935 13.015 7.72632 13.015C3.45911 13.015 0 16.4741 0 20.7413C0 25.0085 3.45911 28.4677 7.72632 28.4677Z" fill="white"/>
<path d="M18.5976 13.7081H7.72632V28.4693H18.596V13.7081H18.5976Z" fill="white"/>
<path d="M19.532 28.4677C26.4178 28.4677 32 22.8855 32 15.9996C32 9.11381 26.4178 3.53 19.532 3.53C12.6462 3.53 7.06396 9.11219 7.06396 15.998C7.06396 22.8838 12.6462 28.466 19.532 28.466V28.4677Z" fill="white"/>
<path d="M7.72632 28.4677C11.9935 28.4677 15.4526 25.0085 15.4526 20.7413C15.4526 16.4741 11.9935 13.015 7.72632 13.015C3.45911 13.015 0 16.4741 0 20.7413C0 25.0085 3.45911 28.4677 7.72632 28.4677Z" fill="url(#paint2_radial_23_1588)"/>
<defs>
<linearGradient id="paint0_linear_23_1588" x1="3.53201" y1="7.07492" x2="17.6356" y2="21.1786" gradientUnits="userSpaceOnUse">
<stop stop-color="#FFFF00" stop-opacity="0.2"/>
<stop offset="0.13" stop-color="#FDEF0B" stop-opacity="0.4"/>
<stop offset="0.27" stop-color="#FDE015" stop-opacity="0.58"/>
<stop offset="0.41" stop-color="#FCD41E" stop-opacity="0.73"/>
<stop offset="0.55" stop-color="#FBCB24" stop-opacity="0.85"/>
<stop offset="0.68" stop-color="#FBC529" stop-opacity="0.93"/>
<stop offset="0.82" stop-color="#FBC12C" stop-opacity="0.98"/>
<stop offset="0.94" stop-color="#FBC02D"/>
</linearGradient>
<radialGradient id="paint1_radial_23_1588" cx="0" cy="0" r="1" gradientUnits="userSpaceOnUse" gradientTransform="translate(6.82115 11.0522) rotate(90) scale(3.20648)">
<stop stop-color="white"/>
<stop offset="1" stop-color="#FFF176" stop-opacity="0"/>
</radialGradient>
<radialGradient id="paint2_radial_23_1588" cx="0" cy="0" r="1" gradientUnits="userSpaceOnUse" gradientTransform="translate(3.05732 25.4168) rotate(-41.76) scale(18.7852)">
<stop stop-color="white" stop-opacity="0"/>
<stop offset="0.95" stop-color="#757575" stop-opacity="0.32"/>
</radialGradient>
</defs>
</svg>
