<svg width="164" height="164" viewBox="0 0 164 164" fill="none" xmlns="http://www.w3.org/2000/svg">
<g clip-path="url(#clip0_45_2654)">
<mask id="mask0_45_2654" style="mask-type:luminance" maskUnits="userSpaceOnUse" x="7" y="25" width="88" height="88">
<path d="M94.5387 25.625H7.92676V112.237H94.5387V25.625Z" fill="white"/>
</mask>
<g mask="url(#mask0_45_2654)">
<path d="M46.7909 27.7466C49.0775 24.9203 53.3957 24.9203 55.6823 27.7466L59.7156 32.7396C61.14 34.5014 63.4641 35.2511 65.6457 34.6663L71.8456 33.002C75.3617 32.0574 78.8477 34.5913 79.0352 38.2273L79.365 44.6372C79.485 46.8938 80.9169 48.873 83.031 49.6826L89.0286 51.9767C92.4247 53.2812 93.7591 57.382 91.7724 60.4332L88.2714 65.816C87.0419 67.7127 87.0419 70.1567 88.2714 72.0534L91.7724 77.4362C93.7591 80.4875 92.4247 84.5883 89.0286 85.8928L83.031 88.1868C80.9169 88.9965 79.485 90.9682 79.365 93.2322L79.0352 99.6421C78.8477 103.278 75.3542 105.812 71.8456 104.867L65.6457 103.203C63.4641 102.618 61.1325 103.368 59.7156 105.13L55.6823 110.123C53.3957 112.949 49.0775 112.949 46.7909 110.123L42.7576 105.13C41.3331 103.368 39.0091 102.618 36.8275 103.203L30.6275 104.867C27.1115 105.812 23.6254 103.278 23.438 99.6421L23.1081 93.2322C22.9882 90.9757 21.5563 88.9965 19.4421 88.1868L13.4446 85.8928C10.0485 84.5883 8.71404 80.4875 10.7007 77.4362L14.2018 72.0534C15.4313 70.1567 15.4313 67.7127 14.2018 65.816L10.7007 60.4332C8.71404 57.382 10.0485 53.2812 13.4446 51.9767L19.4421 49.6826C21.5563 48.873 22.9882 46.9013 23.1081 44.6372L23.438 38.2273C23.6254 34.5913 27.119 32.0574 30.6275 33.002L36.8275 34.6663C39.0091 35.2511 41.3406 34.5014 42.7576 32.7396L46.7909 27.7466Z" fill="#FBC02D"/>
<path d="M51.1542 99.8745C68.2547 99.8745 82.1165 86.0127 82.1165 68.9122C82.1165 51.8118 68.2547 37.9499 51.1542 37.9499C34.0537 37.9499 20.1919 51.8118 20.1919 68.9122C20.1919 86.0127 34.0537 99.8745 51.1542 99.8745Z" fill="#FFEE58"/>
<path opacity="0.4" d="M51.1542 99.8745C68.2547 99.8745 82.1165 86.0127 82.1165 68.9122C82.1165 51.8118 68.2547 37.9499 51.1542 37.9499C34.0537 37.9499 20.1919 51.8118 20.1919 68.9122C20.1919 86.0127 34.0537 99.8745 51.1542 99.8745Z" fill="url(#paint0_linear_45_2654)"/>
<path d="M55.6973 60.4482C55.6973 69.3246 48.5003 76.5216 39.6239 76.5216C30.7476 76.5216 23.5505 69.3246 23.5505 60.4482C23.5505 51.5718 30.7476 44.3748 39.6239 44.3748C48.5003 44.3748 55.6973 51.5718 55.6973 60.4482Z" fill="url(#paint1_radial_45_2654)"/>
</g>
<path d="M43.6946 141.07C63.449 141.07 79.4624 125.057 79.4624 105.302C79.4624 85.5479 63.449 69.5345 43.6946 69.5345C23.9402 69.5345 7.92676 85.5479 7.92676 105.302C7.92676 125.057 23.9402 141.07 43.6946 141.07Z" fill="white"/>
<path d="M94.0214 72.7431H43.6946V141.078H94.0139V72.7431H94.0214Z" fill="white"/>
<path d="M98.3472 141.07C130.224 141.07 156.066 115.228 156.066 83.3513C156.066 51.4744 130.224 25.625 98.3472 25.625C66.4703 25.625 40.6284 51.4669 40.6284 83.3438C40.6284 115.221 66.4703 141.063 98.3472 141.063V141.07Z" fill="white"/>
<path d="M43.6946 141.07C63.449 141.07 79.4624 125.057 79.4624 105.302C79.4624 85.5479 63.449 69.5345 43.6946 69.5345C23.9402 69.5345 7.92676 85.5479 7.92676 105.302C7.92676 125.057 23.9402 141.07 43.6946 141.07Z" fill="url(#paint2_radial_45_2654)"/>
</g>
<defs>
<linearGradient id="paint0_linear_45_2654" x1="24.2777" y1="42.0358" x2="89.5684" y2="107.326" gradientUnits="userSpaceOnUse">
<stop stop-color="#FFFF00" stop-opacity="0.2"/>
<stop offset="0.13" stop-color="#FDEF0B" stop-opacity="0.4"/>
<stop offset="0.27" stop-color="#FDE015" stop-opacity="0.58"/>
<stop offset="0.41" stop-color="#FCD41E" stop-opacity="0.73"/>
<stop offset="0.55" stop-color="#FBCB24" stop-opacity="0.85"/>
<stop offset="0.68" stop-color="#FBC529" stop-opacity="0.93"/>
<stop offset="0.82" stop-color="#FBC12C" stop-opacity="0.98"/>
<stop offset="0.94" stop-color="#FBC02D"/>
</linearGradient>
<radialGradient id="paint1_radial_45_2654" cx="0" cy="0" r="1" gradientUnits="userSpaceOnUse" gradientTransform="translate(39.504 60.4482) rotate(90) scale(14.8439 14.8439)">
<stop stop-color="white"/>
<stop offset="1" stop-color="#FFF176" stop-opacity="0"/>
</radialGradient>
<radialGradient id="paint2_radial_45_2654" cx="0" cy="0" r="1" gradientUnits="userSpaceOnUse" gradientTransform="translate(22.0802 126.947) rotate(-41.76) scale(86.9632)">
<stop stop-color="white" stop-opacity="0"/>
<stop offset="0.95" stop-color="#757575" stop-opacity="0.32"/>
</radialGradient>
<clipPath id="clip0_45_2654">
<rect width="164" height="164" fill="white"/>
</clipPath>
</defs>
</svg>
