<svg width="33" height="32" viewBox="0 0 33 32" fill="none" xmlns="http://www.w3.org/2000/svg">
<g clip-path="url(#clip0_45_1078)">
<path d="M11.9196 25.3605L12.5891 29.7565C12.8007 31.1456 11.5167 32.2948 10.159 31.931C8.80129 31.5673 8.26354 29.929 9.1415 28.8315L11.9196 25.3589V25.3605Z" fill="#90CAF9"/>
<path d="M17.9555 25.3605L18.6249 29.7565C18.8366 31.1456 17.5526 32.2948 16.1949 31.931C14.8372 31.5673 14.2994 29.929 15.1774 28.8315L17.9555 25.3589V25.3605Z" fill="#90CAF9"/>
<path d="M23.9914 25.3605L24.6608 29.7565C24.8725 31.1456 23.5885 32.2948 22.2308 31.931C20.8731 31.5673 20.3353 29.929 21.2133 28.8315L23.9914 25.3589V25.3605Z" fill="#90CAF9"/>
<path d="M11.9196 25.3605L12.5891 29.7565C12.8007 31.1456 11.5167 32.2948 10.159 31.931C8.80129 31.5673 8.26354 29.929 9.1415 28.8315L11.9196 25.3589V25.3605ZM15.1775 28.8331C14.2995 29.9305 14.8373 31.5689 16.195 31.9326C17.5527 32.2963 18.8367 31.1471 18.625 29.7581L17.9556 25.362L15.1775 28.8347V28.8331ZM21.2134 28.8331C20.3355 29.9305 20.8732 31.5689 22.2309 31.9326C23.5886 32.2963 24.8726 31.1471 24.661 29.7581L23.9915 25.362L21.2134 28.8347V28.8331Z" fill="url(#paint0_linear_45_1078)"/>
<path d="M19.6893 22.5255C25.9091 22.5255 30.9513 17.4833 30.9513 11.2635C30.9513 5.0437 25.9091 0 19.6893 0C13.4695 0 8.42725 5.04224 8.42725 11.262C8.42725 17.4818 13.4695 22.524 19.6893 22.524V22.5255Z" fill="white"/>
<path d="M9.0256 22.5255C12.8801 22.5255 16.0046 19.401 16.0046 15.5465C16.0046 11.6921 12.8801 8.56755 9.0256 8.56755C5.17115 8.56755 2.04663 11.6921 2.04663 15.5465C2.04663 19.401 5.17115 22.5255 9.0256 22.5255Z" fill="white"/>
<path d="M9.0256 22.5255C12.8801 22.5255 16.0046 19.401 16.0046 15.5465C16.0046 11.6921 12.8801 8.56755 9.0256 8.56755C5.17115 8.56755 2.04663 11.6921 2.04663 15.5465C2.04663 19.401 5.17115 22.5255 9.0256 22.5255Z" fill="url(#paint1_radial_45_1078)"/>
</g>
<defs>
<linearGradient id="paint0_linear_45_1078" x1="12.3413" y1="39.5003" x2="22.9474" y2="16.4978" gradientUnits="userSpaceOnUse">
<stop stop-color="#3F51B5" stop-opacity="0.4"/>
<stop offset="1" stop-color="#90CAF9" stop-opacity="0"/>
</linearGradient>
<radialGradient id="paint1_radial_45_1078" cx="0" cy="0" r="1" gradientUnits="userSpaceOnUse" gradientTransform="translate(4.63341 20.005) rotate(-41.76) scale(16.9682)">
<stop stop-color="white" stop-opacity="0"/>
<stop offset="0.95" stop-color="#757575" stop-opacity="0.32"/>
</radialGradient>
<clipPath id="clip0_45_1078">
<rect width="32" height="32" fill="white" transform="translate(0.5)"/>
</clipPath>
</defs>
</svg>
