<svg width="22" height="27" viewBox="0 0 22 27" fill="none" xmlns="http://www.w3.org/2000/svg">
<path d="M11.3667 22.8333C11.6333 22.8111 11.8613 22.7058 12.0507 22.5173C12.2391 22.328 12.3333 22.1 12.3333 21.8333C12.3333 21.5222 12.2333 21.2724 12.0333 21.084C11.8333 20.8947 11.5778 20.8111 11.2667 20.8333C10.3556 20.9 9.38888 20.6502 8.36666 20.084C7.34444 19.5169 6.7 18.4889 6.43333 17C6.38888 16.7555 6.272 16.5555 6.08266 16.4C5.89422 16.2444 5.67777 16.1667 5.43333 16.1667C5.12222 16.1667 4.86666 16.2831 4.66666 16.516C4.46666 16.7498 4.39999 17.0222 4.46666 17.3333C4.84444 19.3555 5.73333 20.8 7.13333 21.6667C8.53333 22.5333 9.94444 22.9222 11.3667 22.8333ZM11 26.8333C7.95555 26.8333 5.41688 25.7889 3.384 23.7C1.35022 21.6111 0.333328 19.0111 0.333328 15.9C0.333328 13.6778 1.21688 11.2613 2.98399 8.65066C4.75022 6.0391 7.42222 3.2111 11 0.166656C14.5778 3.2111 17.2502 6.0391 19.0173 8.65066C20.7836 11.2613 21.6667 13.6778 21.6667 15.9C21.6667 19.0111 20.6498 21.6111 18.616 23.7C16.5831 25.7889 14.0444 26.8333 11 26.8333Z" fill="#212121" fill-opacity="0.6"/>
</svg>
