<svg width="32" height="33" viewBox="0 0 32 33" fill="none" xmlns="http://www.w3.org/2000/svg">
<g clip-path="url(#clip0_23_631)">
<path d="M16 25.8334C16.3536 25.8334 16.6928 25.9738 16.9428 26.2239C17.1929 26.4739 17.3333 26.8131 17.3333 27.1667V28.5C17.3333 28.8536 17.1929 29.1928 16.9428 29.4428C16.6928 29.6929 16.3536 29.8334 16 29.8334C15.6464 29.8334 15.3072 29.6929 15.0572 29.4428C14.8071 29.1928 14.6667 28.8536 14.6667 28.5V27.1667C14.6667 26.8131 14.8071 26.4739 15.0572 26.2239C15.3072 25.9738 15.6464 25.8334 16 25.8334ZM24.4853 23.1L25.428 24.0427C25.6709 24.2942 25.8053 24.631 25.8022 24.9806C25.7992 25.3302 25.659 25.6646 25.4118 25.9118C25.1645 26.159 24.8301 26.2992 24.4805 26.3023C24.1309 26.3053 23.7941 26.1709 23.5427 25.928L22.6 24.9854C22.3571 24.7339 22.2227 24.3971 22.2258 24.0475C22.2288 23.6979 22.369 23.3635 22.6162 23.1163C22.8634 22.8691 23.1979 22.7288 23.5475 22.7258C23.8971 22.7228 24.2339 22.8571 24.4853 23.1ZM7.51466 23.1C7.7546 22.8609 8.07657 22.7221 8.41517 22.7117C8.75377 22.7014 9.08361 22.8203 9.3377 23.0444C9.59179 23.2684 9.75107 23.5808 9.78319 23.918C9.81532 24.2552 9.71788 24.592 9.51066 24.86L9.39999 24.9854L8.45733 25.928C8.21738 26.1672 7.89541 26.306 7.55681 26.3163C7.21822 26.3267 6.88838 26.2077 6.63429 25.9837C6.3802 25.7596 6.22092 25.4473 6.18879 25.1101C6.15667 24.7728 6.25411 24.436 6.46133 24.168L6.57199 24.0427L7.51466 23.1ZM16 8.50002C18.1217 8.50002 20.1566 9.34288 21.6568 10.8432C23.1571 12.3435 24 14.3783 24 16.5C24 18.6218 23.1571 20.6566 21.6568 22.1569C20.1566 23.6572 18.1217 24.5 16 24.5C13.8783 24.5 11.8434 23.6572 10.3431 22.1569C8.84285 20.6566 7.99999 18.6218 7.99999 16.5C7.99999 14.3783 8.84285 12.3435 10.3431 10.8432C11.8434 9.34288 13.8783 8.50002 16 8.50002ZM5.33333 15.1667C5.67317 15.1671 6.00004 15.2972 6.24715 15.5305C6.49427 15.7638 6.64297 16.0826 6.66289 16.4219C6.6828 16.7611 6.57243 17.0952 6.35431 17.3558C6.13619 17.6164 5.82679 17.7839 5.48933 17.824L5.33333 17.8334H3.99999C3.66015 17.833 3.33328 17.7028 3.08617 17.4696C2.83905 17.2363 2.69035 16.9174 2.67043 16.5782C2.65051 16.2389 2.76089 15.9048 2.97901 15.6442C3.19713 15.3836 3.50653 15.2162 3.84399 15.176L3.99999 15.1667H5.33333ZM28 15.1667C28.3536 15.1667 28.6928 15.3072 28.9428 15.5572C29.1929 15.8073 29.3333 16.1464 29.3333 16.5C29.3333 16.8536 29.1929 17.1928 28.9428 17.4428C28.6928 17.6929 28.3536 17.8334 28 17.8334H26.6667C26.313 17.8334 25.9739 17.6929 25.7239 17.4428C25.4738 17.1928 25.3333 16.8536 25.3333 16.5C25.3333 16.1464 25.4738 15.8073 25.7239 15.5572C25.9739 15.3072 26.313 15.1667 26.6667 15.1667H28ZM6.57199 7.07202C6.80158 6.84245 7.10705 6.70454 7.43108 6.68417C7.75512 6.66379 8.07545 6.76235 8.33199 6.96135L8.45733 7.07202L9.39999 8.01469C9.63912 8.25463 9.77796 8.5766 9.7883 8.9152C9.79864 9.2538 9.67971 9.58364 9.45566 9.83773C9.23162 10.0918 8.91926 10.2511 8.58203 10.2832C8.2448 10.3153 7.90798 10.2179 7.63999 10.0107L7.51466 9.90002L6.57199 8.95735C6.32203 8.70732 6.18161 8.36824 6.18161 8.01469C6.18161 7.66114 6.32203 7.32206 6.57199 7.07202ZM25.428 7.07202C25.678 7.32206 25.8184 7.66114 25.8184 8.01469C25.8184 8.36824 25.678 8.70732 25.428 8.95735L24.4853 9.90002C24.3623 10.0274 24.2152 10.1289 24.0525 10.1988C23.8899 10.2687 23.7149 10.3055 23.5379 10.307C23.3608 10.3086 23.1852 10.2748 23.0214 10.2078C22.8575 10.1407 22.7087 10.0417 22.5835 9.91655C22.4583 9.79136 22.3593 9.64249 22.2922 9.47863C22.2252 9.31476 22.1915 9.13919 22.193 8.96215C22.1945 8.78511 22.2313 8.61015 22.3012 8.44748C22.3711 8.28481 22.4726 8.13768 22.6 8.01469L23.5427 7.07202C23.7927 6.82206 24.1318 6.68164 24.4853 6.68164C24.8389 6.68164 25.178 6.82206 25.428 7.07202ZM16 3.16669C16.3536 3.16669 16.6928 3.30716 16.9428 3.55721C17.1929 3.80726 17.3333 4.1464 17.3333 4.50002V5.83335C17.3333 6.18698 17.1929 6.52611 16.9428 6.77616C16.6928 7.02621 16.3536 7.16669 16 7.16669C15.6464 7.16669 15.3072 7.02621 15.0572 6.77616C14.8071 6.52611 14.6667 6.18698 14.6667 5.83335V4.50002C14.6667 4.1464 14.8071 3.80726 15.0572 3.55721C15.3072 3.30716 15.6464 3.16669 16 3.16669Z" fill="#212121" fill-opacity="0.6"/>
</g>
<defs>
<clipPath id="clip0_23_631">
<rect width="32" height="32" fill="white" transform="translate(0 0.5)"/>
</clipPath>
</defs>
</svg>
