<svg width="30" height="31" viewBox="0 0 30 31" fill="none" xmlns="http://www.w3.org/2000/svg">
<path d="M13.3919 0.759246C14.2198 -0.253123 15.7802 -0.253123 16.6081 0.759246L18.0688 2.54649C18.5835 3.17645 19.4236 3.44615 20.213 3.23683L22.4548 2.64108C23.7262 2.30296 24.9896 3.21067 25.0567 4.51084L25.1767 6.80528C25.2194 7.61235 25.7382 8.32081 26.5031 8.61063L28.6717 9.4318C29.9004 9.89874 30.3826 11.366 29.6644 12.4588L28.3991 14.385C27.9536 15.0632 27.9536 15.9367 28.3991 16.615L29.6644 18.5411C30.3826 19.634 29.9004 21.1012 28.6717 21.5681L26.5031 22.3893C25.7402 22.6791 25.2194 23.3856 25.1767 24.1947L25.0567 26.4891C24.9896 27.7893 23.7262 28.697 22.4548 28.3589L20.213 27.7631C19.4236 27.5538 18.5814 27.8235 18.0688 28.4535L16.6081 30.2407C15.7802 31.2531 14.2198 31.2531 13.3919 30.2407L11.9312 28.4535C11.4165 27.8235 10.5764 27.5538 9.78704 27.7631L7.54521 28.3589C6.27375 28.697 5.01043 27.7893 4.9433 26.4891L4.82328 24.1947C4.78056 23.3856 4.2618 22.6791 3.49689 22.3893L1.3283 21.5681C0.0995676 21.1032 -0.382568 19.634 0.33555 18.5411L1.6009 16.615C2.04642 15.9367 2.04642 15.0632 1.6009 14.385L0.33555 12.4588C-0.382568 11.366 0.0995676 9.89874 1.3283 9.4318L3.49689 8.61063C4.25977 8.32081 4.78056 7.61437 4.82328 6.80528L4.9433 4.51084C5.01043 3.21067 6.27375 2.30296 7.54521 2.64108L9.78704 3.23683C10.5764 3.44615 11.4186 3.17645 11.9312 2.54649L13.3919 0.759246Z" fill="#FBC02D"/>
<path d="M15 27C21.0765 27 26 21.8506 26 15.5C26 9.14938 21.0745 3.99997 15 3.99997C8.92552 3.99997 4 9.14938 4 15.5C4 21.8506 8.92552 27 15 27Z" fill="#FFEE58"/>
<path opacity="0.4" d="M15 27C21.0765 27 26 21.8506 26 15.5C26 9.14938 21.0745 3.99997 15 3.99997C8.92552 3.99997 4 9.14938 4 15.5C4 21.8506 8.92552 27 15 27Z" fill="url(#paint0_linear_45_2466)"/>
<path d="M17 12.5C17 15.5367 14.3149 18 11 18C7.68509 18 5 15.5386 5 12.5C5 9.46131 7.68509 6.99997 11 6.99997C14.3149 6.99997 17 9.46131 17 12.5Z" fill="url(#paint1_radial_45_2466)"/>
<defs>
<linearGradient id="paint0_linear_45_2466" x1="5.45068" y1="5.51659" x2="29.6801" y2="28.6905" gradientUnits="userSpaceOnUse">
<stop stop-color="#FFFF00" stop-opacity="0.2"/>
<stop offset="0.13" stop-color="#FDEF0B" stop-opacity="0.4"/>
<stop offset="0.27" stop-color="#FDE015" stop-opacity="0.58"/>
<stop offset="0.41" stop-color="#FCD41E" stop-opacity="0.73"/>
<stop offset="0.55" stop-color="#FBCB24" stop-opacity="0.85"/>
<stop offset="0.68" stop-color="#FBC529" stop-opacity="0.93"/>
<stop offset="0.82" stop-color="#FBC12C" stop-opacity="0.98"/>
<stop offset="0.94" stop-color="#FBC02D"/>
</linearGradient>
<radialGradient id="paint1_radial_45_2466" cx="0" cy="0" r="1" gradientUnits="userSpaceOnUse" gradientTransform="translate(11.0336 12.5019) rotate(90) scale(5.01697 5.47306)">
<stop stop-color="white"/>
<stop offset="1" stop-color="#FFF176" stop-opacity="0"/>
</radialGradient>
</defs>
</svg>
