<svg width="32" height="33" viewBox="0 0 32 33" fill="none" xmlns="http://www.w3.org/2000/svg">
<g clip-path="url(#clip0_23_589)">
<path d="M16 13.8333C17.4044 13.8331 18.7841 14.2026 20.0004 14.9047C21.2167 15.6068 22.2268 16.6167 22.929 17.8328C23.6313 19.049 24.0011 20.4287 24.0011 21.8331C24.0012 23.2374 23.6315 24.6171 22.9293 25.8333H26.6667C27.0203 25.8333 27.3594 25.9738 27.6095 26.2239C27.8595 26.4739 28 26.813 28 27.1667C28 27.5203 27.8595 27.8594 27.6095 28.1095C27.3594 28.3595 27.0203 28.5 26.6667 28.5H5.33332C4.9797 28.5 4.64056 28.3595 4.39051 28.1095C4.14047 27.8594 3.99999 27.5203 3.99999 27.1667C3.99999 26.813 4.14047 26.4739 4.39051 26.2239C4.64056 25.9738 4.9797 25.8333 5.33332 25.8333H9.07066C8.36846 24.6171 7.99881 23.2374 7.99886 21.8331C7.99891 20.4287 8.36866 19.049 9.07094 17.8328C9.77322 16.6167 10.7833 15.6068 11.9996 14.9047C13.2159 14.2026 14.5956 13.8331 16 13.8333ZM16 16.5C14.9418 16.4999 13.9075 16.8146 13.0287 17.4041C12.1499 17.9935 11.4663 18.8311 11.0649 19.8102C10.6635 20.7893 10.5624 21.8656 10.7745 22.9023C10.9866 23.9391 11.5023 24.8892 12.256 25.632L12.4733 25.832H19.5267C20.3386 25.1154 20.9131 24.1686 21.1739 23.1176C21.4346 22.0665 21.3693 20.961 20.9864 19.948C20.6036 18.9349 19.9215 18.0625 19.0308 17.4466C18.14 16.8307 17.0829 16.5005 16 16.5ZM28 20.5C28.3536 20.5 28.6927 20.6405 28.9428 20.8905C29.1928 21.1406 29.3333 21.4797 29.3333 21.8333C29.3333 22.187 29.1928 22.5261 28.9428 22.7761C28.6927 23.0262 28.3536 23.1667 28 23.1667H26.6667C26.313 23.1667 25.9739 23.0262 25.7238 22.7761C25.4738 22.5261 25.3333 22.187 25.3333 21.8333C25.3333 21.4797 25.4738 21.1406 25.7238 20.8905C25.9739 20.6405 26.313 20.5 26.6667 20.5H28ZM5.33332 20.5C5.68694 20.5 6.02608 20.6405 6.27613 20.8905C6.52618 21.1406 6.66666 21.4797 6.66666 21.8333C6.66666 22.187 6.52618 22.5261 6.27613 22.7761C6.02608 23.0262 5.68694 23.1667 5.33332 23.1667H3.99999C3.64637 23.1667 3.30723 23.0262 3.05718 22.7761C2.80713 22.5261 2.66666 22.187 2.66666 21.8333C2.66666 21.4797 2.80713 21.1406 3.05718 20.8905C3.30723 20.6405 3.64637 20.5 3.99999 20.5H5.33332ZM6.57199 12.4053C6.80158 12.1758 7.10705 12.0379 7.43108 12.0175C7.75512 11.9971 8.07545 12.0957 8.33199 12.2947L8.45732 12.4053L9.39999 13.348C9.63912 13.5879 9.77795 13.9099 9.78829 14.2485C9.79863 14.5871 9.6797 14.917 9.45566 15.171C9.23161 15.4251 8.91925 15.5844 8.58202 15.6165C8.24479 15.6487 7.90798 15.5512 7.63999 15.344L7.51466 15.2333L6.57199 14.2907C6.32203 14.0406 6.18161 13.7016 6.18161 13.348C6.18161 12.9945 6.32203 12.6554 6.57199 12.4053ZM25.428 12.4053C25.6779 12.6554 25.8184 12.9945 25.8184 13.348C25.8184 13.7016 25.6779 14.0406 25.428 14.2907L24.4853 15.2333C24.2339 15.4762 23.897 15.6106 23.5475 15.6076C23.1979 15.6045 22.8634 15.4643 22.6162 15.2171C22.369 14.9699 22.2288 14.6355 22.2258 14.2859C22.2227 13.9363 22.3571 13.5995 22.6 13.348L23.5427 12.4053C23.7927 12.1554 24.1318 12.015 24.4853 12.015C24.8389 12.015 25.1779 12.1554 25.428 12.4053ZM16.9427 3.39734L19.7707 6.22534C19.898 6.34833 19.9996 6.49546 20.0695 6.65813C20.1393 6.8208 20.1761 6.99576 20.1777 7.1728C20.1792 7.34984 20.1455 7.52541 20.0784 7.68927C20.0114 7.85314 19.9124 8.00201 19.7872 8.1272C19.662 8.25239 19.5131 8.35139 19.3493 8.41843C19.1854 8.48547 19.0098 8.51921 18.8328 8.51767C18.6557 8.51613 18.4808 8.47935 18.3181 8.40947C18.1554 8.33959 18.0083 8.23802 17.8853 8.11067L17.3333 7.55867V11.1667C17.3333 11.5203 17.1928 11.8594 16.9428 12.1095C16.6927 12.3595 16.3536 12.5 16 12.5C15.6464 12.5 15.3072 12.3595 15.0572 12.1095C14.8071 11.8594 14.6667 11.5203 14.6667 11.1667V7.55867L14.1147 8.11067C13.8632 8.35355 13.5264 8.48794 13.1768 8.4849C12.8272 8.48186 12.4928 8.34164 12.2456 8.09443C11.9984 7.84722 11.8581 7.5128 11.8551 7.1632C11.8521 6.81361 11.9864 6.47681 12.2293 6.22534L15.056 3.39734C15.1798 3.27337 15.3269 3.17502 15.4887 3.10792C15.6506 3.04082 15.8241 3.00629 15.9993 3.00629C16.1745 3.00629 16.348 3.04082 16.5099 3.10792C16.6718 3.17502 16.8188 3.27337 16.9427 3.39734Z" fill="#212121" fill-opacity="0.6"/>
</g>
<defs>
<clipPath id="clip0_23_589">
<rect width="32" height="32" fill="white" transform="translate(0 0.5)"/>
</clipPath>
</defs>
</svg>
