<svg width="32" height="33" viewBox="0 0 32 33" fill="none" xmlns="http://www.w3.org/2000/svg">
<g clip-path="url(#clip0_23_621)">
<path d="M16 13.8333C17.4044 13.8331 18.7841 14.2026 20.0004 14.9047C21.2167 15.6068 22.2268 16.6167 22.9291 17.8329C23.6313 19.049 24.0011 20.4287 24.0011 21.8331C24.0012 23.2374 23.6315 24.6171 22.9293 25.8333H26.6667C27.0203 25.8333 27.3594 25.9738 27.6095 26.2239C27.8595 26.4739 28 26.8131 28 27.1667C28 27.5203 27.8595 27.8594 27.6095 28.1095C27.3594 28.3595 27.0203 28.5 26.6667 28.5H5.33334C4.97972 28.5 4.64058 28.3595 4.39053 28.1095C4.14048 27.8594 4.00001 27.5203 4.00001 27.1667C4.00001 26.8131 4.14048 26.4739 4.39053 26.2239C4.64058 25.9738 4.97972 25.8333 5.33334 25.8333H9.07067C8.36848 24.6171 7.99883 23.2374 7.99888 21.8331C7.99893 20.4287 8.36868 19.049 9.07096 17.8329C9.77324 16.6167 10.7833 15.6068 11.9996 14.9047C13.2159 14.2026 14.5956 13.8331 16 13.8333ZM16 16.5C14.9418 16.4999 13.9075 16.8146 13.0287 17.4041C12.1499 17.9935 11.4663 18.8311 11.0649 19.8102C10.6635 20.7893 10.5624 21.8656 10.7745 22.9024C10.9866 23.9391 11.5023 24.8892 12.256 25.632L12.4733 25.832H19.5267C20.3386 25.1154 20.9131 24.1686 21.1739 23.1176C21.4347 22.0665 21.3693 20.961 20.9865 19.948C20.6036 18.935 19.9215 18.0625 19.0308 17.4466C18.1401 16.8307 17.0829 16.5005 16 16.5ZM28 20.5C28.3398 20.5004 28.6667 20.6305 28.9138 20.8638C29.1609 21.0971 29.3097 21.4159 29.3296 21.7552C29.3495 22.0945 29.2391 22.4285 29.021 22.6891C28.8029 22.9497 28.4935 23.1172 28.156 23.1573L28 23.1667H26.6667C26.3268 23.1663 26 23.0362 25.7529 22.8029C25.5057 22.5696 25.357 22.2507 25.3371 21.9115C25.3172 21.5722 25.4276 21.2382 25.6457 20.9776C25.8638 20.717 26.1732 20.5495 26.5107 20.5093L26.6667 20.5H28ZM5.33334 20.5C5.67318 20.5004 6.00005 20.6305 6.24717 20.8638C6.49428 21.0971 6.64299 21.4159 6.6629 21.7552C6.68282 22.0945 6.57244 22.4285 6.35432 22.6891C6.1362 22.9497 5.8268 23.1172 5.48934 23.1573L5.33334 23.1667H4.00001C3.66017 23.1663 3.3333 23.0362 3.08618 22.8029C2.83907 22.5696 2.69036 22.2507 2.67045 21.9115C2.65053 21.5722 2.76091 21.2382 2.97903 20.9776C3.19715 20.717 3.50655 20.5495 3.84401 20.5093L4.00001 20.5H5.33334ZM8.45734 12.4053L9.40001 13.348C9.64289 13.5995 9.77728 13.9363 9.77424 14.2859C9.7712 14.6355 9.63098 14.9699 9.38377 15.2171C9.13656 15.4643 8.80214 15.6045 8.45254 15.6076C8.10295 15.6106 7.76614 15.4762 7.51468 15.2333L6.57201 14.2907C6.32913 14.0392 6.19474 13.7024 6.19778 13.3528C6.20081 13.0032 6.34104 12.6688 6.58825 12.4216C6.83546 12.1744 7.16988 12.0341 7.51947 12.0311C7.86907 12.0281 8.20587 12.1625 8.45734 12.4053ZM23.5427 12.4053C23.7826 12.1662 24.1046 12.0274 24.4432 12.017C24.7818 12.0067 25.1116 12.1256 25.3657 12.3497C25.6198 12.5737 25.7791 12.8861 25.8112 13.2233C25.8433 13.5605 25.7459 13.8974 25.5387 14.1653L25.428 14.2907L24.4853 15.2333C24.2454 15.4725 23.9234 15.6113 23.5848 15.6216C23.2462 15.632 22.9164 15.5131 22.6623 15.289C22.4082 15.065 22.2489 14.7526 22.2168 14.4154C22.1847 14.0781 22.2821 13.7413 22.4893 13.4733L22.6 13.348L23.5427 12.4053ZM16 3.00534C16.3268 3.00542 16.6422 3.12551 16.8862 3.34279C17.1303 3.56008 17.2861 3.85943 17.324 4.18401L17.3333 4.34001V7.94801L17.8853 7.39467C18.1247 7.153 18.4474 7.01196 18.7874 7.00043C19.1274 6.9889 19.4589 7.10774 19.7141 7.33263C19.9693 7.55752 20.1289 7.87145 20.1603 8.21017C20.1916 8.54889 20.0923 8.88678 19.8827 9.15467L19.7707 9.28134L16.944 12.1093C16.7144 12.3389 16.409 12.4768 16.0849 12.4972C15.7609 12.5176 15.4405 12.419 15.184 12.22L15.0573 12.1093L12.2293 9.28134C11.9877 9.04195 11.8466 8.71925 11.8351 8.37928C11.8236 8.03931 11.9424 7.70779 12.1673 7.45257C12.3922 7.19735 12.7061 7.03774 13.0448 7.0064C13.3836 6.97507 13.7214 7.07438 13.9893 7.28401L14.1147 7.39467L14.6667 7.94801V4.34001C14.6667 3.98639 14.8072 3.64725 15.0572 3.3972C15.3072 3.14715 15.6464 3.00667 16 3.00667V3.00534Z" fill="#212121" fill-opacity="0.6"/>
</g>
<defs>
<clipPath id="clip0_23_621">
<rect width="32" height="32" fill="white" transform="translate(0 0.5)"/>
</clipPath>
</defs>
</svg>
